<?xml version="1.0" encoding="UTF-8"?>
<svg width="81px" height="92px" viewBox="0 0 81 92" version="1.1" xmlns="http://www.w3.org/2000/svg" xmlns:xlink="http://www.w3.org/1999/xlink">
    <!-- Generator: Sketch 63.1 (92452) - https://sketch.com -->
    <title>icn-alert-mobile</title>
    <desc>Created with Sketch.</desc>
    <g id="Banner-Coronavírus" stroke="none" stroke-width="1" fill="none" fill-rule="evenodd">
        <g id="desktop-home-1-copy" transform="translate(-721.000000, -388.000000)">
            <g id="destaque" transform="translate(699.000000, 348.000000)">
                <g id="icn-alert-mobile" transform="translate(68.351244, 82.877876) rotate(-30.000000) translate(-68.351244, -82.877876) translate(26.757042, 47.877876)">
                    <circle id="Oval" fill="#E8F2FB" cx="27.4396438" cy="30.4638029" r="24.3478261"></circle>
                    <path d="M65.0774487,2.79015952 C65.1412627,2.79015952 65.1997589,2.79538586 65.2742085,2.80583853 C65.6251855,2.84242288 65.954891,2.99921295 66.210147,3.24485072 C66.5079456,3.54275185 66.6727984,3.93472702 66.6727984,4.35806021 L66.6727984,53.4856152 C66.6727984,54.2643392 66.0878368,54.9280839 65.3061155,55.0430632 C65.2635729,55.0482896 65.2210302,55.0482896 65.1784875,55.0482896 L65.0774487,55.0535159 C65.0029991,55.0535159 64.9338673,55.0482896 64.8434641,55.0326106 C64.3096867,54.9535622 63.8663956,54.6151366 63.6414653,54.1616895 L63.6386838,54.1552693 C61.4807481,50.3460684 55.4495136,44.2140958 50.1274272,41.6249691 C47.0101139,40.1082865 43.6231866,39.1299165 40.1474515,38.7060607 L40.1474515,19.2703637 C43.6231866,18.8459852 47.0111775,17.8634341 50.1274272,16.3472742 C55.4495136,13.7581475 61.4730667,7.43973526 63.6155461,3.72885209 L63.6139723,3.74139204 C63.8298854,3.25790804 64.2925937,2.89205751 64.8647355,2.80583853 C64.9338673,2.79538586 65.0029991,2.79015952 65.0774487,2.79015952 Z M68.7999313,23.0213048 C71.2939945,23.8836502 73.054197,26.2407275 73.054197,28.9218377 C73.054197,31.5924952 71.309948,33.9391199 68.7999313,34.8171443 L68.7999313,23.0213048 Z M42.2107704,49.5397318 C42.2107704,50.6372623 41.3014211,51.536192 40.1793585,51.536192 L32.9577424,51.536192 C31.8356798,51.536192 30.9263305,50.6372623 30.9263305,49.5397318 C30.9263305,48.4422013 31.8356798,47.5432716 32.9577424,47.5432716 L40.1793585,47.5432716 C41.3014211,47.5432716 42.2107704,48.4422013 42.2107704,49.5397318 Z M38.9934819,63.9226075 L35.632612,63.9226075 C34.4467354,63.9226075 33.47889,62.9766407 33.47889,61.8111679 C33.47889,61.7641309 33.47889,61.7223202 33.4842078,61.6752832 L33.4842078,61.6596042 C33.5373861,60.9070118 33.9947197,60.2693989 34.6381774,59.9349134 C34.7551697,59.8774237 34.8827977,59.8251604 35.0104256,59.7833497 C35.1433715,59.7467653 35.2763173,59.7206336 35.4198987,59.7049546 L39.162589,59.7049546 C39.4556016,59.7284731 39.7326606,59.8079134 39.9825987,59.9349134 C40.6739169,60.2850779 41.147204,60.9958595 41.147204,61.8111679 C41.147204,62.9766407 40.1793585,63.9226075 38.9934819,63.9226075 Z M36.1005812,66.9695612 C35.7868291,67.3667627 35.3082242,67.5967215 34.7977124,67.5967215 L24.6459707,67.5967215 C24.3800791,67.5967215 24.1195054,67.5287791 23.8961564,67.403347 C23.465412,67.1786146 23.1516599,66.7605078 23.0772103,66.2587795 C23.0293498,65.9451994 22.9868071,65.6368456 22.9442645,65.3284918 C22.5720162,62.6891923 22.2742176,60.2746252 22.0242795,57.9070952 C23.433505,57.0395235 24.5183428,55.9838037 25.3053819,54.7190304 C26.7890571,52.3410477 27.3687008,49.8428593 27.5920498,48.4422013 C28.1371276,48.2273989 28.6795464,47.9963949 29.2187746,47.7591193 C28.9518195,48.2974318 28.7991977,48.9000283 28.7991977,49.5397318 C28.7991977,50.6895257 29.2884382,51.7347928 30.0701596,52.4821588 C29.1554924,53.2295248 28.5705309,54.3584133 28.5705309,55.6179602 C28.5705309,57.5726097 29.9797564,59.2136791 31.8516333,59.6108806 C31.8931124,59.6197654 31.9361869,59.6239464 31.977666,59.6317859 C31.9351233,59.7007736 31.8904535,59.7692386 31.8516333,59.8408394 C31.5325634,60.426189 31.3517571,61.1003863 31.3517571,61.8111679 C31.3517571,64.1264346 33.2714945,66.0131418 35.632612,66.0131418 L36.4462403,66.0131418 C36.4409225,66.3580799 36.3239302,66.6925654 36.1005812,66.9695612 Z M20.7905424,56.2033098 C20.5991005,56.3182891 20.4182942,56.4228159 20.2481235,56.5168899 C20.0779529,56.6109639 19.9184179,56.689359 19.7748365,56.7573013 C19.5568054,56.861828 19.3759991,56.9402231 19.2430533,56.9977128 C18.7059522,57.2276715 18.4613319,57.8443791 18.7006344,58.372239 C18.8761228,58.7642142 19.2643246,58.9993993 19.6737977,58.9993993 C19.7801543,58.9993993 19.886511,58.9837203 19.9981854,58.947136 C20.2162165,60.9801805 20.4821082,63.0602621 20.7905424,65.2971338 C18.3071148,65.1926071 15.8449585,64.8581216 13.4253449,64.2989037 C13.1009571,64.225735 12.7765693,64.1473399 12.4521816,64.0584922 L12.5532204,44.9928198 C13.4359805,44.5276759 14.9143379,43.858705 17.5360291,42.8918329 C17.982727,42.7298165 18.4294249,42.5678001 18.8814407,42.41101 C19.2270998,42.2908043 19.5780767,42.1653722 19.9343714,42.0451665 C20.2853484,41.9249608 20.6416431,41.8099814 20.99262,41.695002 C21.5563103,41.5068539 22.1200005,41.3291585 22.6890085,41.1514631 C24.6778777,41.3448375 26.6454756,41.2246318 28.5333061,40.806525 C28.884283,40.7281299 29.2086707,40.6445086 29.5117872,40.5608872 C29.6819578,40.5138502 29.8414928,40.4668131 30.0010277,40.4197761 C30.1552449,40.3727391 30.2988263,40.3257021 30.4424078,40.2734387 C30.7827491,40.1636857 31.0858655,40.0539326 31.3677106,39.9494059 C31.8409977,39.7717105 32.4897732,39.5417517 32.654626,39.5887888 C32.71844,39.6305994 32.7875718,39.7246735 32.8513858,39.8657845 C32.8832928,39.9337269 32.9151998,40.0173483 32.9417889,40.1114223 C32.9683781,40.20027 32.9949673,40.3047967 33.0109208,40.4197761 C33.0215564,40.4615868 33.0268742,40.5086238 33.0321921,40.5556609 C33.0640991,40.8326566 33.0640991,41.1410104 33.0321921,41.4650433 C32.9949673,41.8204341 32.9151998,42.1967302 32.7928896,42.5573474 C32.622719,43.0747546 32.3621452,43.5660302 32.0058505,43.9423263 C31.8569512,44.0938901 31.6176487,44.2611328 31.2826253,44.4492809 C30.8199739,44.7053714 30.181834,45.0084988 29.389477,45.3795686 C29.3841592,45.3795686 29.3841592,45.384795 29.3788414,45.384795 C28.3524998,45.8708442 27.2942512,46.3150827 26.2413204,46.7175106 C25.8690721,46.8586216 25.6084984,47.1878808 25.5659557,47.5746296 C25.4489634,48.5833124 25.0129012,51.1860275 23.4920012,53.6267263 C23.0080784,54.400224 22.4018456,55.0169316 21.7956127,55.5082071 C21.4552714,55.7799766 21.1096124,56.0099353 20.7905424,56.2033098 Z M33.5639753,45.3638896 C33.7341459,45.1861942 33.8883631,44.9928198 34.0213089,44.7942191 C34.4573711,44.1827378 34.7551697,43.4876351 34.9412938,42.7873062 C35.063604,42.3378413 35.1327358,41.8936028 35.1593249,41.4650433 L38.897761,41.4650433 C40.0198236,41.4650433 40.9291729,42.3587466 40.9291729,43.4615035 C40.9291729,44.559034 40.0198236,45.4527373 38.897761,45.4527373 L33.4735721,45.4527373 C33.5054791,45.4266057 33.5373861,45.3952477 33.5639753,45.3638896 Z M40.3176222,57.577836 C40.2006298,57.6039677 40.0783197,57.6144204 39.9560096,57.6144204 L39.1274913,57.6144204 C39.0822897,57.6128525 39.0392153,57.6039677 38.9934819,57.6039677 L35.632612,57.6039677 C35.568798,57.6039677 35.5065794,57.6118072 35.4432972,57.6144204 L32.7290756,57.6144204 C31.6123309,57.6144204 30.6976638,56.720717 30.6976638,55.6179602 C30.6976638,54.5204297 31.6123309,53.6267263 32.7290756,53.6267263 L39.9560096,53.6267263 C41.0727543,53.6267263 41.9821036,54.5204297 41.9821036,55.6179602 C41.9821036,56.6005113 41.2641963,57.4158196 40.3176222,57.577836 Z M13.5582907,33.6255398 L13.5582907,24.2181356 C13.5582907,21.6258732 15.7066949,19.5144336 18.3443396,19.5144336 L38.0203187,19.5144336 L38.0203187,38.3292419 L34.3722858,38.3292419 C34.2180687,38.1463201 34.0425802,37.9843037 33.8458204,37.8588717 C32.8301145,37.1846744 31.8090907,37.5557442 30.6285319,37.9843037 C30.3360512,38.0940568 30.0116634,38.2090362 29.6500508,38.3292419 L18.3443396,38.3292419 C15.7066949,38.3292419 13.5582907,36.2178023 13.5582907,33.6255398 Z M9.79326549,31.012372 C9.51673822,31.012372 9.28275361,30.7824132 9.28275361,30.5158701 L9.28275361,27.3278053 C9.28275361,27.0612622 9.51673822,26.8313035 9.79326549,26.8313035 L11.4311578,26.8313035 L11.4311578,31.012372 L9.79326549,31.012372 Z M68.7999313,20.8314701 L68.7999313,4.35806021 C68.7999313,3.37550911 68.4117295,2.46090037 67.7097757,1.77102407 C67.1141785,1.18044814 66.3271393,0.814604648 65.4762862,0.725756942 C65.1465806,0.689172593 64.8062393,0.694398928 64.5243942,0.741435949 C63.3624479,0.912859758 62.3876892,1.61841507 61.8372936,2.57587976 C61.7745432,2.63911842 61.716047,2.70810605 61.6692501,2.78911425 C59.9999826,5.6970474 56.1578488,11.0812184 49.1835119,14.4741555 C43.8747201,17.0564879 38.8105485,17.4986359 35.5023251,17.4139693 C35.4273437,17.4092656 35.3544894,17.412924 35.2837622,17.4238993 L18.3443396,17.4238993 C14.531454,17.4238993 11.4311578,20.470853 11.4311578,24.2181356 L11.4311578,24.7407692 L9.79326549,24.7407692 C9.19235046,24.7407692 8.63929591,24.93937 8.19791584,25.2738554 C6.703605,24.2651727 4.84236374,22.5561609 3.70966549,19.8959561 C2.68332388,17.481389 2.67800605,15.223612 2.85349451,13.7550117 C2.92262633,13.1853411 2.50251759,12.6627075 1.91755605,12.5947652 C1.33791234,12.5268228 0.806129127,12.9397033 0.736997309,13.5146003 C0.534919686,15.2288383 0.540237519,17.8681378 1.74206759,20.7008118 C3.11406829,23.9254608 5.39541829,25.9532791 7.1662564,27.1187519 C7.16093857,27.1866943 7.15562074,27.259863 7.15562074,27.3278053 L7.15562074,30.5158701 C7.15562074,31.9426597 8.33617948,33.1029062 9.79326549,33.1029062 L11.4311578,33.1029062 L11.4311578,33.6255398 C11.4311578,37.3414644 14.4782756,40.3675128 18.2486186,40.4145498 C17.7593781,40.5870189 17.2701375,40.7594879 16.7915326,40.9371834 C14.8983844,41.632286 13.5529728,42.1915039 12.5691739,42.6461951 L12.5691739,42.1392406 C12.5691739,41.8622448 12.4574994,41.5904753 12.2554218,41.3971009 C12.0533442,41.1985001 11.7768169,41.1044261 11.489654,41.0887471 L7.71931095,41.1357841 C7.12903158,41.1410104 6.66106235,41.616607 6.66638018,42.1915039 C6.67169801,42.7664008 7.15030291,43.2263184 7.74058228,43.2263184 L10.4367232,43.1949604 L10.4314054,43.827347 L10.4207697,46.6182102 L10.3197309,65.4643765 L9.76667633,65.4696028 L1.48149381,65.5061872 C0.891214442,65.5061872 0.417927379,65.9765574 0.423114262,66.5566807 C0.423114262,67.1315776 0.901850106,67.5967215 1.48681164,67.5967215 L11.3832973,67.5496844 C11.9682589,67.5496844 12.4415459,67.0845406 12.4415459,66.5096436 L12.4415459,66.2169688 C12.6063987,66.2587795 12.7765693,66.3005902 12.9414221,66.3371746 C15.6588344,66.9643348 18.4187893,67.3197257 21.2106512,67.403347 C21.7637057,68.7517416 23.1144351,69.6872557 24.6459707,69.6872557 L34.7977124,69.6872557 C35.9676354,69.6872557 37.057791,69.1646221 37.7810162,68.2552397 C38.2968459,67.6019478 38.5733732,66.8179974 38.578691,66.0131418 L38.9934819,66.0131418 C41.3545994,66.0131418 43.2743368,64.1264346 43.2743368,61.8111679 C43.2743368,60.8233905 42.9286777,59.9140081 42.3383984,59.1927737 C42.2958557,59.1405104 42.2448045,59.0955639 42.2001347,59.0448684 C42.2453363,59.0161236 42.2947922,58.9936504 42.3383984,58.962815 C43.4072826,58.2259017 44.1092365,56.9977128 44.1092365,55.6179602 C44.1092365,54.4681663 43.6199959,53.4228992 42.8382746,52.6807595 C43.7529417,51.9281672 44.3379033,50.7992787 44.3379033,49.5397318 C44.3379033,47.9979628 43.4657788,46.6547945 42.1841812,45.9596919 C42.731918,45.2698156 43.0563057,44.4022439 43.0563057,43.4615035 C43.0563057,42.6122239 42.7819056,41.8277509 42.3282945,41.1728911 C44.473508,41.6155617 46.8032503,42.3404545 49.1840437,43.4986105 C56.1578488,46.8910249 59.9999826,52.2757185 61.6692501,55.183129 C61.7522083,55.3278985 61.8686688,55.4386969 61.9994875,55.5259767 C62.5663684,56.3496472 63.4613595,56.9444042 64.5031229,57.0970132 C64.689247,57.1283712 64.8806889,57.1440502 65.0774487,57.1440502 C65.1518984,57.1440502 65.2157124,57.1388238 65.2848442,57.1388238 L65.385883,57.1335975 C65.4284257,57.1335975 65.4709683,57.1335975 65.513511,57.1283712 C67.3853879,56.9036387 68.7999313,55.335738 68.7999313,53.4856152 L68.7999313,37.0122053 C72.4958246,36.0819175 75.1813299,32.7527417 75.1813299,28.9218377 C75.1813299,25.080481 72.4745533,21.7408525 68.7999313,20.8314701 Z" id="Fill-236" fill="#4A4A4A"></path>
                    <path d="M74.378065,14.2427848 C73.8761169,13.9572104 73.2346514,14.1273179 72.9451265,14.6201142 L70.84712,18.1913406 C70.5575951,18.6841369 70.7291072,19.3150811 71.2310552,19.60014 C71.3962732,19.6934414 71.5767018,19.7377724 71.7545078,19.7377724 C72.117463,19.7377724 72.4694036,19.5532316 72.6639937,19.2222952 L74.7620002,15.6510687 C75.0515251,15.1582724 74.880013,14.5278438 74.378065,14.2427848" id="Fill-237" fill="#4A4A4A"></path>
                    <path d="M75.9527772,23.8985882 C76.1305832,23.8985882 76.3110118,23.8542572 76.4762298,23.7604403 L80.1099771,21.6985313 C80.6119251,21.4139878 80.7834372,20.7830437 80.4939123,20.2902474 C80.2038629,19.7969357 79.5623974,19.6278591 79.0609738,19.9129181 L75.4272265,21.9748271 C74.9252785,22.2593705 74.7537665,22.8903147 75.0427669,23.383111 C75.237357,23.7140474 75.5898221,23.8985882 75.9527772,23.8985882" id="Fill-238" fill="#4A4A4A"></path>
                    <path d="M81.7209514,27.5065659 L77.5249384,27.5065659 C76.9458886,27.5065659 76.4759351,27.9684336 76.4759351,28.5375205 C76.4759351,29.1066073 76.9458886,29.568475 77.5249384,29.568475 L81.7209514,29.568475 C82.3000012,29.568475 82.7699547,29.1066073 82.7699547,28.5375205 C82.7699547,27.9684336 82.3000012,27.5065659 81.7209514,27.5065659" id="Fill-239" fill="#4A4A4A"></path>
                    <path d="M80.1099771,35.3771234 L76.4762298,33.3152143 C75.9742817,33.0301554 75.3328163,33.1997474 75.0427669,33.6925437 C74.7537665,34.18534 74.9252785,34.8162841 75.4272265,35.1008276 L79.0609738,37.1627366 C79.2256673,37.2565535 79.4066204,37.3008845 79.5844265,37.3008845 C79.9468571,37.3008845 80.2993222,37.1163437 80.4939123,36.7854072 C80.7834372,36.292611 80.6119251,35.6616668 80.1099771,35.3771234" id="Fill-240" fill="#4A4A4A"></path>
                    <path d="M72.6639937,37.8165175 C72.3739443,37.3237212 71.7324788,37.1541292 71.2310552,37.4386727 C70.7291072,37.7237316 70.5575951,38.3546757 70.84712,38.847472 L72.9451265,42.4186985 C73.1397166,42.7491194 73.4916572,42.9341757 73.8546124,42.9341757 C74.0324184,42.9341757 74.212847,42.8893292 74.378065,42.7960278 C74.880013,42.5109689 75.0515251,41.8805402 74.7620002,41.3877439 L72.6639937,37.8165175" id="Fill-241" fill="#4A4A4A"></path>
                </g>
            </g>
        </g>
    </g>
</svg>